# Scissors model reconstructed from supplied video
mtllib modelo_tesoura.mtl
usemtl MetalCromado
v -13.000000 26.000000 -4.000000
v -13.000000 26.000000 4.000000
v -20.700000 26.000000 -4.000000
v -20.700000 26.000000 4.000000
v -13.077044 27.568274 -4.000000
v -13.077044 27.568274 4.000000
v -20.739967 26.813542 -4.000000
v -20.739967 26.813542 4.000000
v -13.307436 29.121445 -4.000000
v -13.307436 29.121445 4.000000
v -20.859482 27.619250 -4.000000
v -20.859482 27.619250 4.000000
v -13.688955 30.644555 -4.000000
v -13.688955 30.644555 4.000000
v -21.057395 28.409363 -4.000000
v -21.057395 28.409363 4.000000
v -14.217927 32.122935 -4.000000
v -14.217927 32.122935 4.000000
v -21.331800 29.176272 -4.000000
v -21.331800 29.176272 4.000000
v -14.889260 33.542348 -4.000000
v -14.889260 33.542348 4.000000
v -21.680054 29.912593 -4.000000
v -21.680054 29.912593 4.000000
v -15.696486 34.889124 -4.000000
v -15.696486 34.889124 4.000000
v -22.098802 30.611233 -4.000000
v -22.098802 30.611233 4.000000
v -16.631833 36.150293 -4.000000
v -16.631833 36.150293 4.000000
v -22.584013 31.265464 -4.000000
v -22.584013 31.265464 4.000000
v -17.686292 37.313708 -4.000000
v -17.686292 37.313708 4.000000
v -23.131014 31.868986 -4.000000
v -23.131014 31.868986 4.000000
v -18.849707 38.368167 -4.000000
v -18.849707 38.368167 4.000000
v -23.734536 32.415987 -4.000000
v -23.734536 32.415987 4.000000
v -20.110876 39.303514 -4.000000
v -20.110876 39.303514 4.000000
v -24.388767 32.901198 -4.000000
v -24.388767 32.901198 4.000000
v -21.457652 40.110740 -4.000000
v -21.457652 40.110740 4.000000
v -25.087407 33.319946 -4.000000
v -25.087407 33.319946 4.000000
v -22.877065 40.782073 -4.000000
v -22.877065 40.782073 4.000000
v -25.823728 33.668200 -4.000000
v -25.823728 33.668200 4.000000
v -24.355445 41.311045 -4.000000
v -24.355445 41.311045 4.000000
v -26.590637 33.942605 -4.000000
v -26.590637 33.942605 4.000000
v -25.878555 41.692564 -4.000000
v -25.878555 41.692564 4.000000
v -27.380750 34.140518 -4.000000
v -27.380750 34.140518 4.000000
v -27.431726 41.922956 -4.000000
v -27.431726 41.922956 4.000000
v -28.186458 34.260033 -4.000000
v -28.186458 34.260033 4.000000
v -29.000000 42.000000 -4.000000
v -29.000000 42.000000 4.000000
v -29.000000 34.300000 -4.000000
v -29.000000 34.300000 4.000000
v -30.568274 41.922956 -4.000000
v -30.568274 41.922956 4.000000
v -29.813542 34.260033 -4.000000
v -29.813542 34.260033 4.000000
v -32.121445 41.692564 -4.000000
v -32.121445 41.692564 4.000000
v -30.619250 34.140518 -4.000000
v -30.619250 34.140518 4.000000
v -33.644555 41.311045 -4.000000
v -33.644555 41.311045 4.000000
v -31.409363 33.942605 -4.000000
v -31.409363 33.942605 4.000000
v -35.122935 40.782073 -4.000000
v -35.122935 40.782073 4.000000
v -32.176272 33.668200 -4.000000
v -32.176272 33.668200 4.000000
v -36.542348 40.110740 -4.000000
v -36.542348 40.110740 4.000000
v -32.912593 33.319946 -4.000000
v -32.912593 33.319946 4.000000
v -37.889124 39.303514 -4.000000
v -37.889124 39.303514 4.000000
v -33.611233 32.901198 -4.000000
v -33.611233 32.901198 4.000000
v -39.150293 38.368167 -4.000000
v -39.150293 38.368167 4.000000
v -34.265464 32.415987 -4.000000
v -34.265464 32.415987 4.000000
v -40.313708 37.313708 -4.000000
v -40.313708 37.313708 4.000000
v -34.868986 31.868986 -4.000000
v -34.868986 31.868986 4.000000
v -41.368167 36.150293 -4.000000
v -41.368167 36.150293 4.000000
v -35.415987 31.265464 -4.000000
v -35.415987 31.265464 4.000000
v -42.303514 34.889124 -4.000000
v -42.303514 34.889124 4.000000
v -35.901198 30.611233 -4.000000
v -35.901198 30.611233 4.000000
v -43.110740 33.542348 -4.000000
v -43.110740 33.542348 4.000000
v -36.319946 29.912593 -4.000000
v -36.319946 29.912593 4.000000
v -43.782073 32.122935 -4.000000
v -43.782073 32.122935 4.000000
v -36.668200 29.176272 -4.000000
v -36.668200 29.176272 4.000000
v -44.311045 30.644555 -4.000000
v -44.311045 30.644555 4.000000
v -36.942605 28.409363 -4.000000
v -36.942605 28.409363 4.000000
v -44.692564 29.121445 -4.000000
v -44.692564 29.121445 4.000000
v -37.140518 27.619250 -4.000000
v -37.140518 27.619250 4.000000
v -44.922956 27.568274 -4.000000
v -44.922956 27.568274 4.000000
v -37.260033 26.813542 -4.000000
v -37.260033 26.813542 4.000000
v -45.000000 26.000000 -4.000000
v -45.000000 26.000000 4.000000
v -37.300000 26.000000 -4.000000
v -37.300000 26.000000 4.000000
v -44.922956 24.431726 -4.000000
v -44.922956 24.431726 4.000000
v -37.260033 25.186458 -4.000000
v -37.260033 25.186458 4.000000
v -44.692564 22.878555 -4.000000
v -44.692564 22.878555 4.000000
v -37.140518 24.380750 -4.000000
v -37.140518 24.380750 4.000000
v -44.311045 21.355445 -4.000000
v -44.311045 21.355445 4.000000
v -36.942605 23.590637 -4.000000
v -36.942605 23.590637 4.000000
v -43.782073 19.877065 -4.000000
v -43.782073 19.877065 4.000000
v -36.668200 22.823728 -4.000000
v -36.668200 22.823728 4.000000
v -43.110740 18.457652 -4.000000
v -43.110740 18.457652 4.000000
v -36.319946 22.087407 -4.000000
v -36.319946 22.087407 4.000000
v -42.303514 17.110876 -4.000000
v -42.303514 17.110876 4.000000
v -35.901198 21.388767 -4.000000
v -35.901198 21.388767 4.000000
v -41.368167 15.849707 -4.000000
v -41.368167 15.849707 4.000000
v -35.415987 20.734536 -4.000000
v -35.415987 20.734536 4.000000
v -40.313708 14.686292 -4.000000
v -40.313708 14.686292 4.000000
v -34.868986 20.131014 -4.000000
v -34.868986 20.131014 4.000000
v -39.150293 13.631833 -4.000000
v -39.150293 13.631833 4.000000
v -34.265464 19.584013 -4.000000
v -34.265464 19.584013 4.000000
v -37.889124 12.696486 -4.000000
v -37.889124 12.696486 4.000000
v -33.611233 19.098802 -4.000000
v -33.611233 19.098802 4.000000
v -36.542348 11.889260 -4.000000
v -36.542348 11.889260 4.000000
v -32.912593 18.680054 -4.000000
v -32.912593 18.680054 4.000000
v -35.122935 11.217927 -4.000000
v -35.122935 11.217927 4.000000
v -32.176272 18.331800 -4.000000
v -32.176272 18.331800 4.000000
v -33.644555 10.688955 -4.000000
v -33.644555 10.688955 4.000000
v -31.409363 18.057395 -4.000000
v -31.409363 18.057395 4.000000
v -32.121445 10.307436 -4.000000
v -32.121445 10.307436 4.000000
v -30.619250 17.859482 -4.000000
v -30.619250 17.859482 4.000000
v -30.568274 10.077044 -4.000000
v -30.568274 10.077044 4.000000
v -29.813542 17.739967 -4.000000
v -29.813542 17.739967 4.000000
v -29.000000 10.000000 -4.000000
v -29.000000 10.000000 4.000000
v -29.000000 17.700000 -4.000000
v -29.000000 17.700000 4.000000
v -27.431726 10.077044 -4.000000
v -27.431726 10.077044 4.000000
v -28.186458 17.739967 -4.000000
v -28.186458 17.739967 4.000000
v -25.878555 10.307436 -4.000000
v -25.878555 10.307436 4.000000
v -27.380750 17.859482 -4.000000
v -27.380750 17.859482 4.000000
v -24.355445 10.688955 -4.000000
v -24.355445 10.688955 4.000000
v -26.590637 18.057395 -4.000000
v -26.590637 18.057395 4.000000
v -22.877065 11.217927 -4.000000
v -22.877065 11.217927 4.000000
v -25.823728 18.331800 -4.000000
v -25.823728 18.331800 4.000000
v -21.457652 11.889260 -4.000000
v -21.457652 11.889260 4.000000
v -25.087407 18.680054 -4.000000
v -25.087407 18.680054 4.000000
v -20.110876 12.696486 -4.000000
v -20.110876 12.696486 4.000000
v -24.388767 19.098802 -4.000000
v -24.388767 19.098802 4.000000
v -18.849707 13.631833 -4.000000
v -18.849707 13.631833 4.000000
v -23.734536 19.584013 -4.000000
v -23.734536 19.584013 4.000000
v -17.686292 14.686292 -4.000000
v -17.686292 14.686292 4.000000
v -23.131014 20.131014 -4.000000
v -23.131014 20.131014 4.000000
v -16.631833 15.849707 -4.000000
v -16.631833 15.849707 4.000000
v -22.584013 20.734536 -4.000000
v -22.584013 20.734536 4.000000
v -15.696486 17.110876 -4.000000
v -15.696486 17.110876 4.000000
v -22.098802 21.388767 -4.000000
v -22.098802 21.388767 4.000000
v -14.889260 18.457652 -4.000000
v -14.889260 18.457652 4.000000
v -21.680054 22.087407 -4.000000
v -21.680054 22.087407 4.000000
v -14.217927 19.877065 -4.000000
v -14.217927 19.877065 4.000000
v -21.331800 22.823728 -4.000000
v -21.331800 22.823728 4.000000
v -13.688955 21.355445 -4.000000
v -13.688955 21.355445 4.000000
v -21.057395 23.590637 -4.000000
v -21.057395 23.590637 4.000000
v -13.307436 22.878555 -4.000000
v -13.307436 22.878555 4.000000
v -20.859482 24.380750 -4.000000
v -20.859482 24.380750 4.000000
v -13.077044 24.431726 -4.000000
v -13.077044 24.431726 4.000000
v -20.739967 25.186458 -4.000000
v -20.739967 25.186458 4.000000
v -13.000000 -26.000000 -4.000000
v -13.000000 -26.000000 4.000000
v -20.700000 -26.000000 -4.000000
v -20.700000 -26.000000 4.000000
v -13.077044 -24.431726 -4.000000
v -13.077044 -24.431726 4.000000
v -20.739967 -25.186458 -4.000000
v -20.739967 -25.186458 4.000000
v -13.307436 -22.878555 -4.000000
v -13.307436 -22.878555 4.000000
v -20.859482 -24.380750 -4.000000
v -20.859482 -24.380750 4.000000
v -13.688955 -21.355445 -4.000000
v -13.688955 -21.355445 4.000000
v -21.057395 -23.590637 -4.000000
v -21.057395 -23.590637 4.000000
v -14.217927 -19.877065 -4.000000
v -14.217927 -19.877065 4.000000
v -21.331800 -22.823728 -4.000000
v -21.331800 -22.823728 4.000000
v -14.889260 -18.457652 -4.000000
v -14.889260 -18.457652 4.000000
v -21.680054 -22.087407 -4.000000
v -21.680054 -22.087407 4.000000
v -15.696486 -17.110876 -4.000000
v -15.696486 -17.110876 4.000000
v -22.098802 -21.388767 -4.000000
v -22.098802 -21.388767 4.000000
v -16.631833 -15.849707 -4.000000
v -16.631833 -15.849707 4.000000
v -22.584013 -20.734536 -4.000000
v -22.584013 -20.734536 4.000000
v -17.686292 -14.686292 -4.000000
v -17.686292 -14.686292 4.000000
v -23.131014 -20.131014 -4.000000
v -23.131014 -20.131014 4.000000
v -18.849707 -13.631833 -4.000000
v -18.849707 -13.631833 4.000000
v -23.734536 -19.584013 -4.000000
v -23.734536 -19.584013 4.000000
v -20.110876 -12.696486 -4.000000
v -20.110876 -12.696486 4.000000
v -24.388767 -19.098802 -4.000000
v -24.388767 -19.098802 4.000000
v -21.457652 -11.889260 -4.000000
v -21.457652 -11.889260 4.000000
v -25.087407 -18.680054 -4.000000
v -25.087407 -18.680054 4.000000
v -22.877065 -11.217927 -4.000000
v -22.877065 -11.217927 4.000000
v -25.823728 -18.331800 -4.000000
v -25.823728 -18.331800 4.000000
v -24.355445 -10.688955 -4.000000
v -24.355445 -10.688955 4.000000
v -26.590637 -18.057395 -4.000000
v -26.590637 -18.057395 4.000000
v -25.878555 -10.307436 -4.000000
v -25.878555 -10.307436 4.000000
v -27.380750 -17.859482 -4.000000
v -27.380750 -17.859482 4.000000
v -27.431726 -10.077044 -4.000000
v -27.431726 -10.077044 4.000000
v -28.186458 -17.739967 -4.000000
v -28.186458 -17.739967 4.000000
v -29.000000 -10.000000 -4.000000
v -29.000000 -10.000000 4.000000
v -29.000000 -17.700000 -4.000000
v -29.000000 -17.700000 4.000000
v -30.568274 -10.077044 -4.000000
v -30.568274 -10.077044 4.000000
v -29.813542 -17.739967 -4.000000
v -29.813542 -17.739967 4.000000
v -32.121445 -10.307436 -4.000000
v -32.121445 -10.307436 4.000000
v -30.619250 -17.859482 -4.000000
v -30.619250 -17.859482 4.000000
v -33.644555 -10.688955 -4.000000
v -33.644555 -10.688955 4.000000
v -31.409363 -18.057395 -4.000000
v -31.409363 -18.057395 4.000000
v -35.122935 -11.217927 -4.000000
v -35.122935 -11.217927 4.000000
v -32.176272 -18.331800 -4.000000
v -32.176272 -18.331800 4.000000
v -36.542348 -11.889260 -4.000000
v -36.542348 -11.889260 4.000000
v -32.912593 -18.680054 -4.000000
v -32.912593 -18.680054 4.000000
v -37.889124 -12.696486 -4.000000
v -37.889124 -12.696486 4.000000
v -33.611233 -19.098802 -4.000000
v -33.611233 -19.098802 4.000000
v -39.150293 -13.631833 -4.000000
v -39.150293 -13.631833 4.000000
v -34.265464 -19.584013 -4.000000
v -34.265464 -19.584013 4.000000
v -40.313708 -14.686292 -4.000000
v -40.313708 -14.686292 4.000000
v -34.868986 -20.131014 -4.000000
v -34.868986 -20.131014 4.000000
v -41.368167 -15.849707 -4.000000
v -41.368167 -15.849707 4.000000
v -35.415987 -20.734536 -4.000000
v -35.415987 -20.734536 4.000000
v -42.303514 -17.110876 -4.000000
v -42.303514 -17.110876 4.000000
v -35.901198 -21.388767 -4.000000
v -35.901198 -21.388767 4.000000
v -43.110740 -18.457652 -4.000000
v -43.110740 -18.457652 4.000000
v -36.319946 -22.087407 -4.000000
v -36.319946 -22.087407 4.000000
v -43.782073 -19.877065 -4.000000
v -43.782073 -19.877065 4.000000
v -36.668200 -22.823728 -4.000000
v -36.668200 -22.823728 4.000000
v -44.311045 -21.355445 -4.000000
v -44.311045 -21.355445 4.000000
v -36.942605 -23.590637 -4.000000
v -36.942605 -23.590637 4.000000
v -44.692564 -22.878555 -4.000000
v -44.692564 -22.878555 4.000000
v -37.140518 -24.380750 -4.000000
v -37.140518 -24.380750 4.000000
v -44.922956 -24.431726 -4.000000
v -44.922956 -24.431726 4.000000
v -37.260033 -25.186458 -4.000000
v -37.260033 -25.186458 4.000000
v -45.000000 -26.000000 -4.000000
v -45.000000 -26.000000 4.000000
v -37.300000 -26.000000 -4.000000
v -37.300000 -26.000000 4.000000
v -44.922956 -27.568274 -4.000000
v -44.922956 -27.568274 4.000000
v -37.260033 -26.813542 -4.000000
v -37.260033 -26.813542 4.000000
v -44.692564 -29.121445 -4.000000
v -44.692564 -29.121445 4.000000
v -37.140518 -27.619250 -4.000000
v -37.140518 -27.619250 4.000000
v -44.311045 -30.644555 -4.000000
v -44.311045 -30.644555 4.000000
v -36.942605 -28.409363 -4.000000
v -36.942605 -28.409363 4.000000
v -43.782073 -32.122935 -4.000000
v -43.782073 -32.122935 4.000000
v -36.668200 -29.176272 -4.000000
v -36.668200 -29.176272 4.000000
v -43.110740 -33.542348 -4.000000
v -43.110740 -33.542348 4.000000
v -36.319946 -29.912593 -4.000000
v -36.319946 -29.912593 4.000000
v -42.303514 -34.889124 -4.000000
v -42.303514 -34.889124 4.000000
v -35.901198 -30.611233 -4.000000
v -35.901198 -30.611233 4.000000
v -41.368167 -36.150293 -4.000000
v -41.368167 -36.150293 4.000000
v -35.415987 -31.265464 -4.000000
v -35.415987 -31.265464 4.000000
v -40.313708 -37.313708 -4.000000
v -40.313708 -37.313708 4.000000
v -34.868986 -31.868986 -4.000000
v -34.868986 -31.868986 4.000000
v -39.150293 -38.368167 -4.000000
v -39.150293 -38.368167 4.000000
v -34.265464 -32.415987 -4.000000
v -34.265464 -32.415987 4.000000
v -37.889124 -39.303514 -4.000000
v -37.889124 -39.303514 4.000000
v -33.611233 -32.901198 -4.000000
v -33.611233 -32.901198 4.000000
v -36.542348 -40.110740 -4.000000
v -36.542348 -40.110740 4.000000
v -32.912593 -33.319946 -4.000000
v -32.912593 -33.319946 4.000000
v -35.122935 -40.782073 -4.000000
v -35.122935 -40.782073 4.000000
v -32.176272 -33.668200 -4.000000
v -32.176272 -33.668200 4.000000
v -33.644555 -41.311045 -4.000000
v -33.644555 -41.311045 4.000000
v -31.409363 -33.942605 -4.000000
v -31.409363 -33.942605 4.000000
v -32.121445 -41.692564 -4.000000
v -32.121445 -41.692564 4.000000
v -30.619250 -34.140518 -4.000000
v -30.619250 -34.140518 4.000000
v -30.568274 -41.922956 -4.000000
v -30.568274 -41.922956 4.000000
v -29.813542 -34.260033 -4.000000
v -29.813542 -34.260033 4.000000
v -29.000000 -42.000000 -4.000000
v -29.000000 -42.000000 4.000000
v -29.000000 -34.300000 -4.000000
v -29.000000 -34.300000 4.000000
v -27.431726 -41.922956 -4.000000
v -27.431726 -41.922956 4.000000
v -28.186458 -34.260033 -4.000000
v -28.186458 -34.260033 4.000000
v -25.878555 -41.692564 -4.000000
v -25.878555 -41.692564 4.000000
v -27.380750 -34.140518 -4.000000
v -27.380750 -34.140518 4.000000
v -24.355445 -41.311045 -4.000000
v -24.355445 -41.311045 4.000000
v -26.590637 -33.942605 -4.000000
v -26.590637 -33.942605 4.000000
v -22.877065 -40.782073 -4.000000
v -22.877065 -40.782073 4.000000
v -25.823728 -33.668200 -4.000000
v -25.823728 -33.668200 4.000000
v -21.457652 -40.110740 -4.000000
v -21.457652 -40.110740 4.000000
v -25.087407 -33.319946 -4.000000
v -25.087407 -33.319946 4.000000
v -20.110876 -39.303514 -4.000000
v -20.110876 -39.303514 4.000000
v -24.388767 -32.901198 -4.000000
v -24.388767 -32.901198 4.000000
v -18.849707 -38.368167 -4.000000
v -18.849707 -38.368167 4.000000
v -23.734536 -32.415987 -4.000000
v -23.734536 -32.415987 4.000000
v -17.686292 -37.313708 -4.000000
v -17.686292 -37.313708 4.000000
v -23.131014 -31.868986 -4.000000
v -23.131014 -31.868986 4.000000
v -16.631833 -36.150293 -4.000000
v -16.631833 -36.150293 4.000000
v -22.584013 -31.265464 -4.000000
v -22.584013 -31.265464 4.000000
v -15.696486 -34.889124 -4.000000
v -15.696486 -34.889124 4.000000
v -22.098802 -30.611233 -4.000000
v -22.098802 -30.611233 4.000000
v -14.889260 -33.542348 -4.000000
v -14.889260 -33.542348 4.000000
v -21.680054 -29.912593 -4.000000
v -21.680054 -29.912593 4.000000
v -14.217927 -32.122935 -4.000000
v -14.217927 -32.122935 4.000000
v -21.331800 -29.176272 -4.000000
v -21.331800 -29.176272 4.000000
v -13.688955 -30.644555 -4.000000
v -13.688955 -30.644555 4.000000
v -21.057395 -28.409363 -4.000000
v -21.057395 -28.409363 4.000000
v -13.307436 -29.121445 -4.000000
v -13.307436 -29.121445 4.000000
v -20.859482 -27.619250 -4.000000
v -20.859482 -27.619250 4.000000
v -13.077044 -27.568274 -4.000000
v -13.077044 -27.568274 4.000000
v -20.739967 -26.813542 -4.000000
v -20.739967 -26.813542 4.000000
v -23.315919 13.568517 -4.000000
v -21.729012 12.377730 -4.000000
v -19.887980 11.638238 -4.000000
v -17.918284 11.400439 -4.000000
v -15.954158 11.680538 -4.000000
v -14.129452 12.459445 -4.000000
v -12.568517 13.684081 -4.000000
v -11.377730 15.270988 -4.000000
v -10.638238 17.112020 -4.000000
v -10.400439 19.081716 -4.000000
v -10.680538 21.045842 -4.000000
v -11.459445 22.870548 -4.000000
v -12.684081 24.431483 -4.000000
v 10.815919 1.431483 -4.000000
v 9.229012 2.622270 -4.000000
v 7.387980 3.361762 -4.000000
v 5.418284 3.599561 -4.000000
v 3.454158 3.319462 -4.000000
v 1.629452 2.540555 -4.000000
v 0.068517 1.315919 -4.000000
v -1.122270 -0.270988 -4.000000
v -1.861762 -2.112020 -4.000000
v -2.099561 -4.081716 -4.000000
v -1.819462 -6.045842 -4.000000
v -1.040555 -7.870548 -4.000000
v 0.184081 -9.431483 -4.000000
v -23.315919 13.568517 4.000000
v -21.729012 12.377730 4.000000
v -19.887980 11.638238 4.000000
v -17.918284 11.400439 4.000000
v -15.954158 11.680538 4.000000
v -14.129452 12.459445 4.000000
v -12.568517 13.684081 4.000000
v -11.377730 15.270988 4.000000
v -10.638238 17.112020 4.000000
v -10.400439 19.081716 4.000000
v -10.680538 21.045842 4.000000
v -11.459445 22.870548 4.000000
v -12.684081 24.431483 4.000000
v 10.815919 1.431483 4.000000
v 9.229012 2.622270 4.000000
v 7.387980 3.361762 4.000000
v 5.418284 3.599561 4.000000
v 3.454158 3.319462 4.000000
v 1.629452 2.540555 4.000000
v 0.068517 1.315919 4.000000
v -1.122270 -0.270988 4.000000
v -1.861762 -2.112020 4.000000
v -2.099561 -4.081716 4.000000
v -1.819462 -6.045842 4.000000
v -1.040555 -7.870548 4.000000
v 0.184081 -9.431483 4.000000
v -6.250000 7.500000 -4.000000
v -6.250000 7.500000 4.000000
v -12.684081 -24.431483 -4.000000
v -11.459445 -22.870548 -4.000000
v -10.680538 -21.045842 -4.000000
v -10.400439 -19.081716 -4.000000
v -10.638238 -17.112020 -4.000000
v -11.377730 -15.270988 -4.000000
v -12.568517 -13.684081 -4.000000
v -14.129452 -12.459445 -4.000000
v -15.954158 -11.680538 -4.000000
v -17.918284 -11.400439 -4.000000
v -19.887980 -11.638238 -4.000000
v -21.729012 -12.377730 -4.000000
v -23.315919 -13.568517 -4.000000
v 0.184081 9.431483 -4.000000
v -1.040555 7.870548 -4.000000
v -1.819462 6.045842 -4.000000
v -2.099561 4.081716 -4.000000
v -1.861762 2.112020 -4.000000
v -1.122270 0.270988 -4.000000
v 0.068517 -1.315919 -4.000000
v 1.629452 -2.540555 -4.000000
v 3.454158 -3.319462 -4.000000
v 5.418284 -3.599561 -4.000000
v 7.387980 -3.361762 -4.000000
v 9.229012 -2.622270 -4.000000
v 10.815919 -1.431483 -4.000000
v -12.684081 -24.431483 4.000000
v -11.459445 -22.870548 4.000000
v -10.680538 -21.045842 4.000000
v -10.400439 -19.081716 4.000000
v -10.638238 -17.112020 4.000000
v -11.377730 -15.270988 4.000000
v -12.568517 -13.684081 4.000000
v -14.129452 -12.459445 4.000000
v -15.954158 -11.680538 4.000000
v -17.918284 -11.400439 4.000000
v -19.887980 -11.638238 4.000000
v -21.729012 -12.377730 4.000000
v -23.315919 -13.568517 4.000000
v 0.184081 9.431483 4.000000
v -1.040555 7.870548 4.000000
v -1.819462 6.045842 4.000000
v -2.099561 4.081716 4.000000
v -1.861762 2.112020 4.000000
v -1.122270 0.270988 4.000000
v 0.068517 -1.315919 4.000000
v 1.629452 -2.540555 4.000000
v 3.454158 -3.319462 4.000000
v 5.418284 -3.599561 4.000000
v 7.387980 -3.361762 4.000000
v 9.229012 -2.622270 4.000000
v 10.815919 -1.431483 4.000000
v -6.250000 -7.500000 -4.000000
v -6.250000 -7.500000 4.000000
v -3.865217 -6.807510 -4.000000
v -2.325754 -7.885872 -4.000000
v -0.559647 -8.529047 -4.000000
v 1.312748 -8.693204 -4.000000
v 3.163830 -8.367157 -4.000000
v 4.867450 -7.573124 -4.000000
v 6.307510 -6.365217 -4.000000
v 7.385872 -4.825754 -4.000000
v 8.029047 -3.059647 -4.000000
v 8.193204 -1.187252 -4.000000
v 7.867157 0.663830 -4.000000
v 7.073124 2.367450 -4.000000
v 5.865217 3.807510 -4.000000
v 47.865217 -34.692490 -4.000000
v 46.325754 -33.614128 -4.000000
v 44.559647 -32.970953 -4.000000
v 42.687252 -32.806796 -4.000000
v 40.836170 -33.132843 -4.000000
v 39.132550 -33.926876 -4.000000
v 37.692490 -35.134783 -4.000000
v 36.614128 -36.674246 -4.000000
v 35.970953 -38.440353 -4.000000
v 35.806796 -40.312748 -4.000000
v 36.132843 -42.163830 -4.000000
v 36.926876 -43.867450 -4.000000
v 38.134783 -45.307510 -4.000000
v -3.865217 -6.807510 4.000000
v -2.325754 -7.885872 4.000000
v -0.559647 -8.529047 4.000000
v 1.312748 -8.693204 4.000000
v 3.163830 -8.367157 4.000000
v 4.867450 -7.573124 4.000000
v 6.307510 -6.365217 4.000000
v 7.385872 -4.825754 4.000000
v 8.029047 -3.059647 4.000000
v 8.193204 -1.187252 4.000000
v 7.867157 0.663830 4.000000
v 7.073124 2.367450 4.000000
v 5.865217 3.807510 4.000000
v 47.865217 -34.692490 4.000000
v 46.325754 -33.614128 4.000000
v 44.559647 -32.970953 4.000000
v 42.687252 -32.806796 4.000000
v 40.836170 -33.132843 4.000000
v 39.132550 -33.926876 4.000000
v 37.692490 -35.134783 4.000000
v 36.614128 -36.674246 4.000000
v 35.970953 -38.440353 4.000000
v 35.806796 -40.312748 4.000000
v 36.132843 -42.163830 4.000000
v 36.926876 -43.867450 4.000000
v 38.134783 -45.307510 4.000000
v 22.000000 -20.750000 -4.000000
v 22.000000 -20.750000 4.000000
v 5.865217 -3.807510 -4.000000
v 7.073124 -2.367450 -4.000000
v 7.867157 -0.663830 -4.000000
v 8.193204 1.187252 -4.000000
v 8.029047 3.059647 -4.000000
v 7.385872 4.825754 -4.000000
v 6.307510 6.365217 -4.000000
v 4.867450 7.573124 -4.000000
v 3.163830 8.367157 -4.000000
v 1.312748 8.693204 -4.000000
v -0.559647 8.529047 -4.000000
v -2.325754 7.885872 -4.000000
v -3.865217 6.807510 -4.000000
v 38.134783 45.307510 -4.000000
v 36.926876 43.867450 -4.000000
v 36.132843 42.163830 -4.000000
v 35.806796 40.312748 -4.000000
v 35.970953 38.440353 -4.000000
v 36.614128 36.674246 -4.000000
v 37.692490 35.134783 -4.000000
v 39.132550 33.926876 -4.000000
v 40.836170 33.132843 -4.000000
v 42.687252 32.806796 -4.000000
v 44.559647 32.970953 -4.000000
v 46.325754 33.614128 -4.000000
v 47.865217 34.692490 -4.000000
v 5.865217 -3.807510 4.000000
v 7.073124 -2.367450 4.000000
v 7.867157 -0.663830 4.000000
v 8.193204 1.187252 4.000000
v 8.029047 3.059647 4.000000
v 7.385872 4.825754 4.000000
v 6.307510 6.365217 4.000000
v 4.867450 7.573124 4.000000
v 3.163830 8.367157 4.000000
v 1.312748 8.693204 4.000000
v -0.559647 8.529047 4.000000
v -2.325754 7.885872 4.000000
v -3.865217 6.807510 4.000000
v 38.134783 45.307510 4.000000
v 36.926876 43.867450 4.000000
v 36.132843 42.163830 4.000000
v 35.806796 40.312748 4.000000
v 35.970953 38.440353 4.000000
v 36.614128 36.674246 4.000000
v 37.692490 35.134783 4.000000
v 39.132550 33.926876 4.000000
v 40.836170 33.132843 4.000000
v 42.687252 32.806796 4.000000
v 44.559647 32.970953 4.000000
v 46.325754 33.614128 4.000000
v 47.865217 34.692490 4.000000
v 22.000000 20.750000 -4.000000
v 22.000000 20.750000 4.000000
v 2.500000 0.000000 -5.200000
v 2.478612 0.326315 -5.200000
v 2.414815 0.647048 -5.200000
v 2.309699 0.956709 -5.200000
v 2.165064 1.250000 -5.200000
v 1.983383 1.521904 -5.200000
v 1.767767 1.767767 -5.200000
v 1.521904 1.983383 -5.200000
v 1.250000 2.165064 -5.200000
v 0.956709 2.309699 -5.200000
v 0.647048 2.414815 -5.200000
v 0.326315 2.478612 -5.200000
v 0.000000 2.500000 -5.200000
v -0.326315 2.478612 -5.200000
v -0.647048 2.414815 -5.200000
v -0.956709 2.309699 -5.200000
v -1.250000 2.165064 -5.200000
v -1.521904 1.983383 -5.200000
v -1.767767 1.767767 -5.200000
v -1.983383 1.521904 -5.200000
v -2.165064 1.250000 -5.200000
v -2.309699 0.956709 -5.200000
v -2.414815 0.647048 -5.200000
v -2.478612 0.326315 -5.200000
v -2.500000 0.000000 -5.200000
v -2.478612 -0.326315 -5.200000
v -2.414815 -0.647048 -5.200000
v -2.309699 -0.956709 -5.200000
v -2.165064 -1.250000 -5.200000
v -1.983383 -1.521904 -5.200000
v -1.767767 -1.767767 -5.200000
v -1.521904 -1.983383 -5.200000
v -1.250000 -2.165064 -5.200000
v -0.956709 -2.309699 -5.200000
v -0.647048 -2.414815 -5.200000
v -0.326315 -2.478612 -5.200000
v -0.000000 -2.500000 -5.200000
v 0.326315 -2.478612 -5.200000
v 0.647048 -2.414815 -5.200000
v 0.956709 -2.309699 -5.200000
v 1.250000 -2.165064 -5.200000
v 1.521904 -1.983383 -5.200000
v 1.767767 -1.767767 -5.200000
v 1.983383 -1.521904 -5.200000
v 2.165064 -1.250000 -5.200000
v 2.309699 -0.956709 -5.200000
v 2.414815 -0.647048 -5.200000
v 2.478612 -0.326315 -5.200000
v 2.500000 0.000000 5.200000
v 2.478612 0.326315 5.200000
v 2.414815 0.647048 5.200000
v 2.309699 0.956709 5.200000
v 2.165064 1.250000 5.200000
v 1.983383 1.521904 5.200000
v 1.767767 1.767767 5.200000
v 1.521904 1.983383 5.200000
v 1.250000 2.165064 5.200000
v 0.956709 2.309699 5.200000
v 0.647048 2.414815 5.200000
v 0.326315 2.478612 5.200000
v 0.000000 2.500000 5.200000
v -0.326315 2.478612 5.200000
v -0.647048 2.414815 5.200000
v -0.956709 2.309699 5.200000
v -1.250000 2.165064 5.200000
v -1.521904 1.983383 5.200000
v -1.767767 1.767767 5.200000
v -1.983383 1.521904 5.200000
v -2.165064 1.250000 5.200000
v -2.309699 0.956709 5.200000
v -2.414815 0.647048 5.200000
v -2.478612 0.326315 5.200000
v -2.500000 0.000000 5.200000
v -2.478612 -0.326315 5.200000
v -2.414815 -0.647048 5.200000
v -2.309699 -0.956709 5.200000
v -2.165064 -1.250000 5.200000
v -1.983383 -1.521904 5.200000
v -1.767767 -1.767767 5.200000
v -1.521904 -1.983383 5.200000
v -1.250000 -2.165064 5.200000
v -0.956709 -2.309699 5.200000
v -0.647048 -2.414815 5.200000
v -0.326315 -2.478612 5.200000
v -0.000000 -2.500000 5.200000
v 0.326315 -2.478612 5.200000
v 0.647048 -2.414815 5.200000
v 0.956709 -2.309699 5.200000
v 1.250000 -2.165064 5.200000
v 1.521904 -1.983383 5.200000
v 1.767767 -1.767767 5.200000
v 1.983383 -1.521904 5.200000
v 2.165064 -1.250000 5.200000
v 2.309699 -0.956709 5.200000
v 2.414815 -0.647048 5.200000
v 2.478612 -0.326315 5.200000
v -0.000000 -0.000000 -5.200000
v -0.000000 -0.000000 5.200000
f 1 5 6
f 1 6 2
f 3 8 7
f 3 4 8
f 2 6 8
f 2 8 4
f 1 7 5
f 1 3 7
f 5 9 10
f 5 10 6
f 7 12 11
f 7 8 12
f 6 10 12
f 6 12 8
f 5 11 9
f 5 7 11
f 9 13 14
f 9 14 10
f 11 16 15
f 11 12 16
f 10 14 16
f 10 16 12
f 9 15 13
f 9 11 15
f 13 17 18
f 13 18 14
f 15 20 19
f 15 16 20
f 14 18 20
f 14 20 16
f 13 19 17
f 13 15 19
f 17 21 22
f 17 22 18
f 19 24 23
f 19 20 24
f 18 22 24
f 18 24 20
f 17 23 21
f 17 19 23
f 21 25 26
f 21 26 22
f 23 28 27
f 23 24 28
f 22 26 28
f 22 28 24
f 21 27 25
f 21 23 27
f 25 29 30
f 25 30 26
f 27 32 31
f 27 28 32
f 26 30 32
f 26 32 28
f 25 31 29
f 25 27 31
f 29 33 34
f 29 34 30
f 31 36 35
f 31 32 36
f 30 34 36
f 30 36 32
f 29 35 33
f 29 31 35
f 33 37 38
f 33 38 34
f 35 40 39
f 35 36 40
f 34 38 40
f 34 40 36
f 33 39 37
f 33 35 39
f 37 41 42
f 37 42 38
f 39 44 43
f 39 40 44
f 38 42 44
f 38 44 40
f 37 43 41
f 37 39 43
f 41 45 46
f 41 46 42
f 43 48 47
f 43 44 48
f 42 46 48
f 42 48 44
f 41 47 45
f 41 43 47
f 45 49 50
f 45 50 46
f 47 52 51
f 47 48 52
f 46 50 52
f 46 52 48
f 45 51 49
f 45 47 51
f 49 53 54
f 49 54 50
f 51 56 55
f 51 52 56
f 50 54 56
f 50 56 52
f 49 55 53
f 49 51 55
f 53 57 58
f 53 58 54
f 55 60 59
f 55 56 60
f 54 58 60
f 54 60 56
f 53 59 57
f 53 55 59
f 57 61 62
f 57 62 58
f 59 64 63
f 59 60 64
f 58 62 64
f 58 64 60
f 57 63 61
f 57 59 63
f 61 65 66
f 61 66 62
f 63 68 67
f 63 64 68
f 62 66 68
f 62 68 64
f 61 67 65
f 61 63 67
f 65 69 70
f 65 70 66
f 67 72 71
f 67 68 72
f 66 70 72
f 66 72 68
f 65 71 69
f 65 67 71
f 69 73 74
f 69 74 70
f 71 76 75
f 71 72 76
f 70 74 76
f 70 76 72
f 69 75 73
f 69 71 75
f 73 77 78
f 73 78 74
f 75 80 79
f 75 76 80
f 74 78 80
f 74 80 76
f 73 79 77
f 73 75 79
f 77 81 82
f 77 82 78
f 79 84 83
f 79 80 84
f 78 82 84
f 78 84 80
f 77 83 81
f 77 79 83
f 81 85 86
f 81 86 82
f 83 88 87
f 83 84 88
f 82 86 88
f 82 88 84
f 81 87 85
f 81 83 87
f 85 89 90
f 85 90 86
f 87 92 91
f 87 88 92
f 86 90 92
f 86 92 88
f 85 91 89
f 85 87 91
f 89 93 94
f 89 94 90
f 91 96 95
f 91 92 96
f 90 94 96
f 90 96 92
f 89 95 93
f 89 91 95
f 93 97 98
f 93 98 94
f 95 100 99
f 95 96 100
f 94 98 100
f 94 100 96
f 93 99 97
f 93 95 99
f 97 101 102
f 97 102 98
f 99 104 103
f 99 100 104
f 98 102 104
f 98 104 100
f 97 103 101
f 97 99 103
f 101 105 106
f 101 106 102
f 103 108 107
f 103 104 108
f 102 106 108
f 102 108 104
f 101 107 105
f 101 103 107
f 105 109 110
f 105 110 106
f 107 112 111
f 107 108 112
f 106 110 112
f 106 112 108
f 105 111 109
f 105 107 111
f 109 113 114
f 109 114 110
f 111 116 115
f 111 112 116
f 110 114 116
f 110 116 112
f 109 115 113
f 109 111 115
f 113 117 118
f 113 118 114
f 115 120 119
f 115 116 120
f 114 118 120
f 114 120 116
f 113 119 117
f 113 115 119
f 117 121 122
f 117 122 118
f 119 124 123
f 119 120 124
f 118 122 124
f 118 124 120
f 117 123 121
f 117 119 123
f 121 125 126
f 121 126 122
f 123 128 127
f 123 124 128
f 122 126 128
f 122 128 124
f 121 127 125
f 121 123 127
f 125 129 130
f 125 130 126
f 127 132 131
f 127 128 132
f 126 130 132
f 126 132 128
f 125 131 129
f 125 127 131
f 129 133 134
f 129 134 130
f 131 136 135
f 131 132 136
f 130 134 136
f 130 136 132
f 129 135 133
f 129 131 135
f 133 137 138
f 133 138 134
f 135 140 139
f 135 136 140
f 134 138 140
f 134 140 136
f 133 139 137
f 133 135 139
f 137 141 142
f 137 142 138
f 139 144 143
f 139 140 144
f 138 142 144
f 138 144 140
f 137 143 141
f 137 139 143
f 141 145 146
f 141 146 142
f 143 148 147
f 143 144 148
f 142 146 148
f 142 148 144
f 141 147 145
f 141 143 147
f 145 149 150
f 145 150 146
f 147 152 151
f 147 148 152
f 146 150 152
f 146 152 148
f 145 151 149
f 145 147 151
f 149 153 154
f 149 154 150
f 151 156 155
f 151 152 156
f 150 154 156
f 150 156 152
f 149 155 153
f 149 151 155
f 153 157 158
f 153 158 154
f 155 160 159
f 155 156 160
f 154 158 160
f 154 160 156
f 153 159 157
f 153 155 159
f 157 161 162
f 157 162 158
f 159 164 163
f 159 160 164
f 158 162 164
f 158 164 160
f 157 163 161
f 157 159 163
f 161 165 166
f 161 166 162
f 163 168 167
f 163 164 168
f 162 166 168
f 162 168 164
f 161 167 165
f 161 163 167
f 165 169 170
f 165 170 166
f 167 172 171
f 167 168 172
f 166 170 172
f 166 172 168
f 165 171 169
f 165 167 171
f 169 173 174
f 169 174 170
f 171 176 175
f 171 172 176
f 170 174 176
f 170 176 172
f 169 175 173
f 169 171 175
f 173 177 178
f 173 178 174
f 175 180 179
f 175 176 180
f 174 178 180
f 174 180 176
f 173 179 177
f 173 175 179
f 177 181 182
f 177 182 178
f 179 184 183
f 179 180 184
f 178 182 184
f 178 184 180
f 177 183 181
f 177 179 183
f 181 185 186
f 181 186 182
f 183 188 187
f 183 184 188
f 182 186 188
f 182 188 184
f 181 187 185
f 181 183 187
f 185 189 190
f 185 190 186
f 187 192 191
f 187 188 192
f 186 190 192
f 186 192 188
f 185 191 189
f 185 187 191
f 189 193 194
f 189 194 190
f 191 196 195
f 191 192 196
f 190 194 196
f 190 196 192
f 189 195 193
f 189 191 195
f 193 197 198
f 193 198 194
f 195 200 199
f 195 196 200
f 194 198 200
f 194 200 196
f 193 199 197
f 193 195 199
f 197 201 202
f 197 202 198
f 199 204 203
f 199 200 204
f 198 202 204
f 198 204 200
f 197 203 201
f 197 199 203
f 201 205 206
f 201 206 202
f 203 208 207
f 203 204 208
f 202 206 208
f 202 208 204
f 201 207 205
f 201 203 207
f 205 209 210
f 205 210 206
f 207 212 211
f 207 208 212
f 206 210 212
f 206 212 208
f 205 211 209
f 205 207 211
f 209 213 214
f 209 214 210
f 211 216 215
f 211 212 216
f 210 214 216
f 210 216 212
f 209 215 213
f 209 211 215
f 213 217 218
f 213 218 214
f 215 220 219
f 215 216 220
f 214 218 220
f 214 220 216
f 213 219 217
f 213 215 219
f 217 221 222
f 217 222 218
f 219 224 223
f 219 220 224
f 218 222 224
f 218 224 220
f 217 223 221
f 217 219 223
f 221 225 226
f 221 226 222
f 223 228 227
f 223 224 228
f 222 226 228
f 222 228 224
f 221 227 225
f 221 223 227
f 225 229 230
f 225 230 226
f 227 232 231
f 227 228 232
f 226 230 232
f 226 232 228
f 225 231 229
f 225 227 231
f 229 233 234
f 229 234 230
f 231 236 235
f 231 232 236
f 230 234 236
f 230 236 232
f 229 235 233
f 229 231 235
f 233 237 238
f 233 238 234
f 235 240 239
f 235 236 240
f 234 238 240
f 234 240 236
f 233 239 237
f 233 235 239
f 237 241 242
f 237 242 238
f 239 244 243
f 239 240 244
f 238 242 244
f 238 244 240
f 237 243 241
f 237 239 243
f 241 245 246
f 241 246 242
f 243 248 247
f 243 244 248
f 242 246 248
f 242 248 244
f 241 247 245
f 241 243 247
f 245 249 250
f 245 250 246
f 247 252 251
f 247 248 252
f 246 250 252
f 246 252 248
f 245 251 249
f 245 247 251
f 249 253 254
f 249 254 250
f 251 256 255
f 251 252 256
f 250 254 256
f 250 256 252
f 249 255 253
f 249 251 255
f 253 1 2
f 253 2 254
f 255 4 3
f 255 256 4
f 254 2 4
f 254 4 256
f 253 3 1
f 253 255 3
f 257 261 262
f 257 262 258
f 259 264 263
f 259 260 264
f 258 262 264
f 258 264 260
f 257 263 261
f 257 259 263
f 261 265 266
f 261 266 262
f 263 268 267
f 263 264 268
f 262 266 268
f 262 268 264
f 261 267 265
f 261 263 267
f 265 269 270
f 265 270 266
f 267 272 271
f 267 268 272
f 266 270 272
f 266 272 268
f 265 271 269
f 265 267 271
f 269 273 274
f 269 274 270
f 271 276 275
f 271 272 276
f 270 274 276
f 270 276 272
f 269 275 273
f 269 271 275
f 273 277 278
f 273 278 274
f 275 280 279
f 275 276 280
f 274 278 280
f 274 280 276
f 273 279 277
f 273 275 279
f 277 281 282
f 277 282 278
f 279 284 283
f 279 280 284
f 278 282 284
f 278 284 280
f 277 283 281
f 277 279 283
f 281 285 286
f 281 286 282
f 283 288 287
f 283 284 288
f 282 286 288
f 282 288 284
f 281 287 285
f 281 283 287
f 285 289 290
f 285 290 286
f 287 292 291
f 287 288 292
f 286 290 292
f 286 292 288
f 285 291 289
f 285 287 291
f 289 293 294
f 289 294 290
f 291 296 295
f 291 292 296
f 290 294 296
f 290 296 292
f 289 295 293
f 289 291 295
f 293 297 298
f 293 298 294
f 295 300 299
f 295 296 300
f 294 298 300
f 294 300 296
f 293 299 297
f 293 295 299
f 297 301 302
f 297 302 298
f 299 304 303
f 299 300 304
f 298 302 304
f 298 304 300
f 297 303 301
f 297 299 303
f 301 305 306
f 301 306 302
f 303 308 307
f 303 304 308
f 302 306 308
f 302 308 304
f 301 307 305
f 301 303 307
f 305 309 310
f 305 310 306
f 307 312 311
f 307 308 312
f 306 310 312
f 306 312 308
f 305 311 309
f 305 307 311
f 309 313 314
f 309 314 310
f 311 316 315
f 311 312 316
f 310 314 316
f 310 316 312
f 309 315 313
f 309 311 315
f 313 317 318
f 313 318 314
f 315 320 319
f 315 316 320
f 314 318 320
f 314 320 316
f 313 319 317
f 313 315 319
f 317 321 322
f 317 322 318
f 319 324 323
f 319 320 324
f 318 322 324
f 318 324 320
f 317 323 321
f 317 319 323
f 321 325 326
f 321 326 322
f 323 328 327
f 323 324 328
f 322 326 328
f 322 328 324
f 321 327 325
f 321 323 327
f 325 329 330
f 325 330 326
f 327 332 331
f 327 328 332
f 326 330 332
f 326 332 328
f 325 331 329
f 325 327 331
f 329 333 334
f 329 334 330
f 331 336 335
f 331 332 336
f 330 334 336
f 330 336 332
f 329 335 333
f 329 331 335
f 333 337 338
f 333 338 334
f 335 340 339
f 335 336 340
f 334 338 340
f 334 340 336
f 333 339 337
f 333 335 339
f 337 341 342
f 337 342 338
f 339 344 343
f 339 340 344
f 338 342 344
f 338 344 340
f 337 343 341
f 337 339 343
f 341 345 346
f 341 346 342
f 343 348 347
f 343 344 348
f 342 346 348
f 342 348 344
f 341 347 345
f 341 343 347
f 345 349 350
f 345 350 346
f 347 352 351
f 347 348 352
f 346 350 352
f 346 352 348
f 345 351 349
f 345 347 351
f 349 353 354
f 349 354 350
f 351 356 355
f 351 352 356
f 350 354 356
f 350 356 352
f 349 355 353
f 349 351 355
f 353 357 358
f 353 358 354
f 355 360 359
f 355 356 360
f 354 358 360
f 354 360 356
f 353 359 357
f 353 355 359
f 357 361 362
f 357 362 358
f 359 364 363
f 359 360 364
f 358 362 364
f 358 364 360
f 357 363 361
f 357 359 363
f 361 365 366
f 361 366 362
f 363 368 367
f 363 364 368
f 362 366 368
f 362 368 364
f 361 367 365
f 361 363 367
f 365 369 370
f 365 370 366
f 367 372 371
f 367 368 372
f 366 370 372
f 366 372 368
f 365 371 369
f 365 367 371
f 369 373 374
f 369 374 370
f 371 376 375
f 371 372 376
f 370 374 376
f 370 376 372
f 369 375 373
f 369 371 375
f 373 377 378
f 373 378 374
f 375 380 379
f 375 376 380
f 374 378 380
f 374 380 376
f 373 379 377
f 373 375 379
f 377 381 382
f 377 382 378
f 379 384 383
f 379 380 384
f 378 382 384
f 378 384 380
f 377 383 381
f 377 379 383
f 381 385 386
f 381 386 382
f 383 388 387
f 383 384 388
f 382 386 388
f 382 388 384
f 381 387 385
f 381 383 387
f 385 389 390
f 385 390 386
f 387 392 391
f 387 388 392
f 386 390 392
f 386 392 388
f 385 391 389
f 385 387 391
f 389 393 394
f 389 394 390
f 391 396 395
f 391 392 396
f 390 394 396
f 390 396 392
f 389 395 393
f 389 391 395
f 393 397 398
f 393 398 394
f 395 400 399
f 395 396 400
f 394 398 400
f 394 400 396
f 393 399 397
f 393 395 399
f 397 401 402
f 397 402 398
f 399 404 403
f 399 400 404
f 398 402 404
f 398 404 400
f 397 403 401
f 397 399 403
f 401 405 406
f 401 406 402
f 403 408 407
f 403 404 408
f 402 406 408
f 402 408 404
f 401 407 405
f 401 403 407
f 405 409 410
f 405 410 406
f 407 412 411
f 407 408 412
f 406 410 412
f 406 412 408
f 405 411 409
f 405 407 411
f 409 413 414
f 409 414 410
f 411 416 415
f 411 412 416
f 410 414 416
f 410 416 412
f 409 415 413
f 409 411 415
f 413 417 418
f 413 418 414
f 415 420 419
f 415 416 420
f 414 418 420
f 414 420 416
f 413 419 417
f 413 415 419
f 417 421 422
f 417 422 418
f 419 424 423
f 419 420 424
f 418 422 424
f 418 424 420
f 417 423 421
f 417 419 423
f 421 425 426
f 421 426 422
f 423 428 427
f 423 424 428
f 422 426 428
f 422 428 424
f 421 427 425
f 421 423 427
f 425 429 430
f 425 430 426
f 427 432 431
f 427 428 432
f 426 430 432
f 426 432 428
f 425 431 429
f 425 427 431
f 429 433 434
f 429 434 430
f 431 436 435
f 431 432 436
f 430 434 436
f 430 436 432
f 429 435 433
f 429 431 435
f 433 437 438
f 433 438 434
f 435 440 439
f 435 436 440
f 434 438 440
f 434 440 436
f 433 439 437
f 433 435 439
f 437 441 442
f 437 442 438
f 439 444 443
f 439 440 444
f 438 442 444
f 438 444 440
f 437 443 441
f 437 439 443
f 441 445 446
f 441 446 442
f 443 448 447
f 443 444 448
f 442 446 448
f 442 448 444
f 441 447 445
f 441 443 447
f 445 449 450
f 445 450 446
f 447 452 451
f 447 448 452
f 446 450 452
f 446 452 448
f 445 451 449
f 445 447 451
f 449 453 454
f 449 454 450
f 451 456 455
f 451 452 456
f 450 454 456
f 450 456 452
f 449 455 453
f 449 451 455
f 453 457 458
f 453 458 454
f 455 460 459
f 455 456 460
f 454 458 460
f 454 460 456
f 453 459 457
f 453 455 459
f 457 461 462
f 457 462 458
f 459 464 463
f 459 460 464
f 458 462 464
f 458 464 460
f 457 463 461
f 457 459 463
f 461 465 466
f 461 466 462
f 463 468 467
f 463 464 468
f 462 466 468
f 462 468 464
f 461 467 465
f 461 463 467
f 465 469 470
f 465 470 466
f 467 472 471
f 467 468 472
f 466 470 472
f 466 472 468
f 465 471 469
f 465 467 471
f 469 473 474
f 469 474 470
f 471 476 475
f 471 472 476
f 470 474 476
f 470 476 472
f 469 475 473
f 469 471 475
f 473 477 478
f 473 478 474
f 475 480 479
f 475 476 480
f 474 478 480
f 474 480 476
f 473 479 477
f 473 475 479
f 477 481 482
f 477 482 478
f 479 484 483
f 479 480 484
f 478 482 484
f 478 484 480
f 477 483 481
f 477 479 483
f 481 485 486
f 481 486 482
f 483 488 487
f 483 484 488
f 482 486 488
f 482 488 484
f 481 487 485
f 481 483 487
f 485 489 490
f 485 490 486
f 487 492 491
f 487 488 492
f 486 490 492
f 486 492 488
f 485 491 489
f 485 487 491
f 489 493 494
f 489 494 490
f 491 496 495
f 491 492 496
f 490 494 496
f 490 496 492
f 489 495 493
f 489 491 495
f 493 497 498
f 493 498 494
f 495 500 499
f 495 496 500
f 494 498 500
f 494 500 496
f 493 499 497
f 493 495 499
f 497 501 502
f 497 502 498
f 499 504 503
f 499 500 504
f 498 502 504
f 498 504 500
f 497 503 501
f 497 499 503
f 501 505 506
f 501 506 502
f 503 508 507
f 503 504 508
f 502 506 508
f 502 508 504
f 501 507 505
f 501 503 507
f 505 509 510
f 505 510 506
f 507 512 511
f 507 508 512
f 506 510 512
f 506 512 508
f 505 511 509
f 505 507 511
f 509 257 258
f 509 258 510
f 511 260 259
f 511 512 260
f 510 258 260
f 510 260 512
f 509 259 257
f 509 511 259
f 565 514 513
f 566 539 540
f 513 514 540
f 513 540 539
f 565 515 514
f 566 540 541
f 514 515 541
f 514 541 540
f 565 516 515
f 566 541 542
f 515 516 542
f 515 542 541
f 565 517 516
f 566 542 543
f 516 517 543
f 516 543 542
f 565 518 517
f 566 543 544
f 517 518 544
f 517 544 543
f 565 519 518
f 566 544 545
f 518 519 545
f 518 545 544
f 565 520 519
f 566 545 546
f 519 520 546
f 519 546 545
f 565 521 520
f 566 546 547
f 520 521 547
f 520 547 546
f 565 522 521
f 566 547 548
f 521 522 548
f 521 548 547
f 565 523 522
f 566 548 549
f 522 523 549
f 522 549 548
f 565 524 523
f 566 549 550
f 523 524 550
f 523 550 549
f 565 525 524
f 566 550 551
f 524 525 551
f 524 551 550
f 565 526 525
f 566 551 552
f 525 526 552
f 525 552 551
f 565 527 526
f 566 552 553
f 526 527 553
f 526 553 552
f 565 528 527
f 566 553 554
f 527 528 554
f 527 554 553
f 565 529 528
f 566 554 555
f 528 529 555
f 528 555 554
f 565 530 529
f 566 555 556
f 529 530 556
f 529 556 555
f 565 531 530
f 566 556 557
f 530 531 557
f 530 557 556
f 565 532 531
f 566 557 558
f 531 532 558
f 531 558 557
f 565 533 532
f 566 558 559
f 532 533 559
f 532 559 558
f 565 534 533
f 566 559 560
f 533 534 560
f 533 560 559
f 565 535 534
f 566 560 561
f 534 535 561
f 534 561 560
f 565 536 535
f 566 561 562
f 535 536 562
f 535 562 561
f 565 537 536
f 566 562 563
f 536 537 563
f 536 563 562
f 565 538 537
f 566 563 564
f 537 538 564
f 537 564 563
f 565 513 538
f 566 564 539
f 538 513 539
f 538 539 564
f 619 568 567
f 620 593 594
f 567 568 594
f 567 594 593
f 619 569 568
f 620 594 595
f 568 569 595
f 568 595 594
f 619 570 569
f 620 595 596
f 569 570 596
f 569 596 595
f 619 571 570
f 620 596 597
f 570 571 597
f 570 597 596
f 619 572 571
f 620 597 598
f 571 572 598
f 571 598 597
f 619 573 572
f 620 598 599
f 572 573 599
f 572 599 598
f 619 574 573
f 620 599 600
f 573 574 600
f 573 600 599
f 619 575 574
f 620 600 601
f 574 575 601
f 574 601 600
f 619 576 575
f 620 601 602
f 575 576 602
f 575 602 601
f 619 577 576
f 620 602 603
f 576 577 603
f 576 603 602
f 619 578 577
f 620 603 604
f 577 578 604
f 577 604 603
f 619 579 578
f 620 604 605
f 578 579 605
f 578 605 604
f 619 580 579
f 620 605 606
f 579 580 606
f 579 606 605
f 619 581 580
f 620 606 607
f 580 581 607
f 580 607 606
f 619 582 581
f 620 607 608
f 581 582 608
f 581 608 607
f 619 583 582
f 620 608 609
f 582 583 609
f 582 609 608
f 619 584 583
f 620 609 610
f 583 584 610
f 583 610 609
f 619 585 584
f 620 610 611
f 584 585 611
f 584 611 610
f 619 586 585
f 620 611 612
f 585 586 612
f 585 612 611
f 619 587 586
f 620 612 613
f 586 587 613
f 586 613 612
f 619 588 587
f 620 613 614
f 587 588 614
f 587 614 613
f 619 589 588
f 620 614 615
f 588 589 615
f 588 615 614
f 619 590 589
f 620 615 616
f 589 590 616
f 589 616 615
f 619 591 590
f 620 616 617
f 590 591 617
f 590 617 616
f 619 592 591
f 620 617 618
f 591 592 618
f 591 618 617
f 619 567 592
f 620 618 593
f 592 567 593
f 592 593 618
f 673 622 621
f 674 647 648
f 621 622 648
f 621 648 647
f 673 623 622
f 674 648 649
f 622 623 649
f 622 649 648
f 673 624 623
f 674 649 650
f 623 624 650
f 623 650 649
f 673 625 624
f 674 650 651
f 624 625 651
f 624 651 650
f 673 626 625
f 674 651 652
f 625 626 652
f 625 652 651
f 673 627 626
f 674 652 653
f 626 627 653
f 626 653 652
f 673 628 627
f 674 653 654
f 627 628 654
f 627 654 653
f 673 629 628
f 674 654 655
f 628 629 655
f 628 655 654
f 673 630 629
f 674 655 656
f 629 630 656
f 629 656 655
f 673 631 630
f 674 656 657
f 630 631 657
f 630 657 656
f 673 632 631
f 674 657 658
f 631 632 658
f 631 658 657
f 673 633 632
f 674 658 659
f 632 633 659
f 632 659 658
f 673 634 633
f 674 659 660
f 633 634 660
f 633 660 659
f 673 635 634
f 674 660 661
f 634 635 661
f 634 661 660
f 673 636 635
f 674 661 662
f 635 636 662
f 635 662 661
f 673 637 636
f 674 662 663
f 636 637 663
f 636 663 662
f 673 638 637
f 674 663 664
f 637 638 664
f 637 664 663
f 673 639 638
f 674 664 665
f 638 639 665
f 638 665 664
f 673 640 639
f 674 665 666
f 639 640 666
f 639 666 665
f 673 641 640
f 674 666 667
f 640 641 667
f 640 667 666
f 673 642 641
f 674 667 668
f 641 642 668
f 641 668 667
f 673 643 642
f 674 668 669
f 642 643 669
f 642 669 668
f 673 644 643
f 674 669 670
f 643 644 670
f 643 670 669
f 673 645 644
f 674 670 671
f 644 645 671
f 644 671 670
f 673 646 645
f 674 671 672
f 645 646 672
f 645 672 671
f 673 621 646
f 674 672 647
f 646 621 647
f 646 647 672
f 727 676 675
f 728 701 702
f 675 676 702
f 675 702 701
f 727 677 676
f 728 702 703
f 676 677 703
f 676 703 702
f 727 678 677
f 728 703 704
f 677 678 704
f 677 704 703
f 727 679 678
f 728 704 705
f 678 679 705
f 678 705 704
f 727 680 679
f 728 705 706
f 679 680 706
f 679 706 705
f 727 681 680
f 728 706 707
f 680 681 707
f 680 707 706
f 727 682 681
f 728 707 708
f 681 682 708
f 681 708 707
f 727 683 682
f 728 708 709
f 682 683 709
f 682 709 708
f 727 684 683
f 728 709 710
f 683 684 710
f 683 710 709
f 727 685 684
f 728 710 711
f 684 685 711
f 684 711 710
f 727 686 685
f 728 711 712
f 685 686 712
f 685 712 711
f 727 687 686
f 728 712 713
f 686 687 713
f 686 713 712
f 727 688 687
f 728 713 714
f 687 688 714
f 687 714 713
f 727 689 688
f 728 714 715
f 688 689 715
f 688 715 714
f 727 690 689
f 728 715 716
f 689 690 716
f 689 716 715
f 727 691 690
f 728 716 717
f 690 691 717
f 690 717 716
f 727 692 691
f 728 717 718
f 691 692 718
f 691 718 717
f 727 693 692
f 728 718 719
f 692 693 719
f 692 719 718
f 727 694 693
f 728 719 720
f 693 694 720
f 693 720 719
f 727 695 694
f 728 720 721
f 694 695 721
f 694 721 720
f 727 696 695
f 728 721 722
f 695 696 722
f 695 722 721
f 727 697 696
f 728 722 723
f 696 697 723
f 696 723 722
f 727 698 697
f 728 723 724
f 697 698 724
f 697 724 723
f 727 699 698
f 728 724 725
f 698 699 725
f 698 725 724
f 727 700 699
f 728 725 726
f 699 700 726
f 699 726 725
f 727 675 700
f 728 726 701
f 700 675 701
f 700 701 726
f 825 730 729
f 826 777 778
f 729 730 778
f 729 778 777
f 825 731 730
f 826 778 779
f 730 731 779
f 730 779 778
f 825 732 731
f 826 779 780
f 731 732 780
f 731 780 779
f 825 733 732
f 826 780 781
f 732 733 781
f 732 781 780
f 825 734 733
f 826 781 782
f 733 734 782
f 733 782 781
f 825 735 734
f 826 782 783
f 734 735 783
f 734 783 782
f 825 736 735
f 826 783 784
f 735 736 784
f 735 784 783
f 825 737 736
f 826 784 785
f 736 737 785
f 736 785 784
f 825 738 737
f 826 785 786
f 737 738 786
f 737 786 785
f 825 739 738
f 826 786 787
f 738 739 787
f 738 787 786
f 825 740 739
f 826 787 788
f 739 740 788
f 739 788 787
f 825 741 740
f 826 788 789
f 740 741 789
f 740 789 788
f 825 742 741
f 826 789 790
f 741 742 790
f 741 790 789
f 825 743 742
f 826 790 791
f 742 743 791
f 742 791 790
f 825 744 743
f 826 791 792
f 743 744 792
f 743 792 791
f 825 745 744
f 826 792 793
f 744 745 793
f 744 793 792
f 825 746 745
f 826 793 794
f 745 746 794
f 745 794 793
f 825 747 746
f 826 794 795
f 746 747 795
f 746 795 794
f 825 748 747
f 826 795 796
f 747 748 796
f 747 796 795
f 825 749 748
f 826 796 797
f 748 749 797
f 748 797 796
f 825 750 749
f 826 797 798
f 749 750 798
f 749 798 797
f 825 751 750
f 826 798 799
f 750 751 799
f 750 799 798
f 825 752 751
f 826 799 800
f 751 752 800
f 751 800 799
f 825 753 752
f 826 800 801
f 752 753 801
f 752 801 800
f 825 754 753
f 826 801 802
f 753 754 802
f 753 802 801
f 825 755 754
f 826 802 803
f 754 755 803
f 754 803 802
f 825 756 755
f 826 803 804
f 755 756 804
f 755 804 803
f 825 757 756
f 826 804 805
f 756 757 805
f 756 805 804
f 825 758 757
f 826 805 806
f 757 758 806
f 757 806 805
f 825 759 758
f 826 806 807
f 758 759 807
f 758 807 806
f 825 760 759
f 826 807 808
f 759 760 808
f 759 808 807
f 825 761 760
f 826 808 809
f 760 761 809
f 760 809 808
f 825 762 761
f 826 809 810
f 761 762 810
f 761 810 809
f 825 763 762
f 826 810 811
f 762 763 811
f 762 811 810
f 825 764 763
f 826 811 812
f 763 764 812
f 763 812 811
f 825 765 764
f 826 812 813
f 764 765 813
f 764 813 812
f 825 766 765
f 826 813 814
f 765 766 814
f 765 814 813
f 825 767 766
f 826 814 815
f 766 767 815
f 766 815 814
f 825 768 767
f 826 815 816
f 767 768 816
f 767 816 815
f 825 769 768
f 826 816 817
f 768 769 817
f 768 817 816
f 825 770 769
f 826 817 818
f 769 770 818
f 769 818 817
f 825 771 770
f 826 818 819
f 770 771 819
f 770 819 818
f 825 772 771
f 826 819 820
f 771 772 820
f 771 820 819
f 825 773 772
f 826 820 821
f 772 773 821
f 772 821 820
f 825 774 773
f 826 821 822
f 773 774 822
f 773 822 821
f 825 775 774
f 826 822 823
f 774 775 823
f 774 823 822
f 825 776 775
f 826 823 824
f 775 776 824
f 775 824 823
f 825 729 776
f 826 824 777
f 776 729 777
f 776 777 824
